<?xml version="1.0" standalone="no"?>
<svg xmlns="http://www.w3.org/2000/svg" viewBox="0 0 143.148 36" width="143.148" height="36"><g fill="#d6af69" color="#d6af69" transform="translate(115.148, 3.9999999999999982) scale(0.2800001)"><svg width="100.0" height="100.0" x="0.0" y="0.0" viewBox="0 0 100 100"><path fill="currentColor" d="M99.04,20.58c-0.01-0.06-0.01-0.12-0.03-0.18c-0.02-0.05-0.06-0.09-0.09-0.13c-0.03-0.05-0.06-0.1-0.1-0.14  s-0.09-0.07-0.141-0.1c-0.04-0.03-0.08-0.06-0.13-0.08c-0.05-0.03-0.109-0.03-0.17-0.04c-0.05-0.01-0.1-0.03-0.16-0.03l-6.21-0.04  l-0.81-1.22c0-0.01-0.01-0.01-0.01-0.02c-0.021-0.02-0.04-0.04-0.061-0.06c-0.03-0.04-0.07-0.07-0.11-0.1  c-0.02-0.02-0.039-0.05-0.069-0.07c-0.021-0.01-0.05-0.02-0.07-0.03c-0.04-0.02-0.09-0.04-0.14-0.05  c-0.03-0.01-0.07-0.03-0.101-0.04c-0.01,0-0.01,0-0.02-0.01C71.93,15.31,56.3,16.39,50.8,21c-0.44,0.37-0.8,0.75-1.09,1.15  c-0.3-0.42-0.67-0.83-1.13-1.21c-4.3-3.61-16.89-6.21-39.3-2.7c-0.01,0.01-0.01,0.01-0.02,0.01c-0.03,0.01-0.06,0.03-0.1,0.04  c-0.05,0.01-0.09,0.03-0.14,0.05C9,18.35,8.97,18.36,8.95,18.37c-0.02,0.02-0.04,0.05-0.07,0.07c-0.04,0.03-0.08,0.06-0.11,0.1  L8.71,18.6c0,0.01-0.01,0.01-0.01,0.02l-0.81,1.22l-6.2,0.04c-0.06,0-0.11,0.02-0.16,0.03c-0.06,0.01-0.12,0.01-0.17,0.04  C1.31,19.96,1.28,20,1.24,20.03c-0.06,0.03-0.11,0.06-0.16,0.1C1.05,20.16,1.03,20.21,1,20.25c-0.03,0.05-0.07,0.09-0.1,0.15  c-0.02,0.05-0.02,0.11-0.03,0.16c-0.01,0.06-0.03,0.11-0.03,0.17v61.31c0,0.06,0.02,0.1,0.03,0.15C0.88,82.25,0.88,82.3,0.9,82.35  c0.02,0.061,0.05,0.101,0.08,0.15c0.03,0.04,0.06,0.09,0.09,0.13c0.04,0.04,0.09,0.07,0.13,0.101c0.05,0.029,0.09,0.069,0.14,0.09  c0.05,0.02,0.11,0.029,0.16,0.04c0.05,0.01,0.09,0.04,0.15,0.04c10.33,0.55,19.34-0.78,26.58-1.851c6.4-0.95,11.46-1.7,13.12-0.26  c0.28,0.24,0.65,0.68,0.65,1.76c0,0.47,0.38,0.851,0.86,0.851h14.19c0.47,0,0.851-0.381,0.851-0.851c0-1.069,0.369-1.52,0.649-1.76  c1.67-1.44,6.73-0.69,13.13,0.26c7.24,1.07,16.25,2.4,26.58,1.851c0.061,0,0.101-0.03,0.15-0.04c0.05-0.011,0.109-0.021,0.16-0.04  c0.05-0.021,0.1-0.061,0.14-0.101c0.04-0.029,0.09-0.05,0.12-0.09c0.05-0.04,0.07-0.09,0.1-0.14c0.03-0.05,0.061-0.09,0.08-0.13  c0.021-0.061,0.03-0.12,0.03-0.181c0.01-0.04,0.03-0.09,0.03-0.14V20.73C99.07,20.68,99.05,20.63,99.04,20.58z M91.32,21.91l1.989,3  v48.82l-2.34-3.36L91.32,21.91z M92.59,75.7c-7.229,0.43-12.54-0.38-17.24-1.101C67.7,73.41,61.65,72.48,52.13,78.03h-1.22  c0.3-1.49,1.32-3.021,2.92-4.32c3.58-2.91,12.99-7.05,35.78-2.3L92.59,75.7z M50.56,24.63c0-0.01,0-0.01,0-0.02  c0.021-0.79,0.471-1.56,1.341-2.29c4.159-3.49,17.42-5.58,37.72-2.49L89.27,69.59c-22.979-4.66-32.739-0.28-36.52,2.79  c-0.77,0.62-1.42,1.3-1.95,2.01l-0.24-49.74C50.56,24.64,50.56,24.64,50.56,24.63z M47.48,22.25c0.89,0.75,1.35,1.54,1.37,2.36v0.05  l0.23,49.68c-0.53-0.689-1.16-1.35-1.91-1.96c-3.78-3.07-13.54-7.45-36.53-2.79l-0.36-49.76C31.68,16.57,43.69,19.08,47.48,22.25z   M10.3,71.41c22.79-4.76,32.21-0.61,35.79,2.3c1.61,1.3,2.63,2.83,2.92,4.32h-1.24c-9.51-5.55-15.56-4.62-23.21-3.431  c-4.7,0.721-10.01,1.53-17.24,1.101L10.3,71.41z M8.58,21.91l0.36,48.46L6.6,73.73V24.91L8.58,21.91z"></path></svg></g><path fill="#154e2f" fill-rule="nonzero" d="M6.30 9.66L6.30 9.66Q5.11 9.66 4.37 9.40Q3.63 9.14 3.38 8.74L3.38 8.74Q3.26 8.58 3.16 8.25Q3.07 7.92 3.23 7.52L3.23 7.52Q3.56 7.78 3.95 7.91Q4.34 8.04 4.66 8.09L4.66 8.09Q5.06 8.16 5.44 8.16L5.44 8.16Q6.14 8.16 6.81 8.04Q7.48 7.92 8.13 7.71L8.13 7.71Q8.41 6.30 8.68 5.18Q8.95 4.05 9.30 3.35L9.30 3.35Q9.68 2.58 10.09 1.96Q10.50 1.34 11.00 0.90Q11.51 0.47 12.12 0.23Q12.73 0 13.52 0L13.52 0Q14.11 0 14.45 0.23Q14.79 0.47 14.96 0.82Q15.14 1.17 15.18 1.58Q15.21 1.99 15.21 2.34L15.21 2.34Q15.21 3.12 14.84 4.03Q14.46 4.95 13.78 5.84Q13.10 6.73 12.15 7.52Q11.20 8.32 10.03 8.84L10.03 8.84Q9.63 10.38 9.25 11.89Q8.86 13.41 8.48 14.39L8.48 14.39Q8.16 15.30 7.65 16.43Q7.15 17.55 6.42 18.59L6.42 18.59Q6.87 18.87 7.32 19.17Q7.78 19.48 8.25 19.72Q8.72 19.97 9.20 20.13Q9.68 20.30 10.22 20.30L10.22 20.30Q10.78 20.27 11.32 20.13L11.32 20.13Q11.79 20.02 12.30 19.75Q12.82 19.48 13.27 18.98L13.27 18.98Q13.43 19.27 13.37 19.83Q13.31 20.39 13.01 20.95Q12.70 21.52 12.14 21.94Q11.58 22.36 10.73 22.36L10.73 22.36Q9.84 22.36 9.07 22.11Q8.30 21.87 7.62 21.52Q6.94 21.16 6.34 20.75Q5.74 20.34 5.23 19.99L5.23 19.99Q4.52 20.67 3.68 21.09Q2.84 21.52 1.80 21.52L1.80 21.52Q0.98 21.52 0.49 21.06Q0 20.60 0.05 19.83L0.05 19.83Q0.07 19.55 0.21 19.16Q0.35 18.77 0.74 18.42Q1.13 18.07 1.80 17.82Q2.48 17.58 3.56 17.58L3.56 17.58Q3.96 17.58 4.32 17.66Q4.69 17.74 5.04 17.86L5.04 17.86Q5.30 17.39 5.55 16.78Q5.81 16.17 6.12 15.40L6.12 15.40Q6.66 13.92 7.05 12.43Q7.45 10.95 7.73 9.54L7.73 9.54Q7.41 9.61 7.04 9.63Q6.68 9.66 6.30 9.66ZM2.41 20.25L2.41 20.25Q2.72 20.13 3.12 20.02Q3.52 19.90 4.03 19.36L4.03 19.36Q3.68 19.24 3.49 19.24L3.49 19.24Q2.65 19.24 2.26 19.49Q1.88 19.73 1.88 19.97L1.88 19.97Q1.88 20.13 2.02 20.21Q2.16 20.30 2.41 20.25ZM11.27 3.94L11.27 3.94Q11.16 4.29 10.97 4.97Q10.78 5.65 10.57 6.54L10.57 6.54Q11.84 5.72 12.60 4.66Q13.36 3.61 13.36 2.55L13.36 2.55Q13.36 1.92 12.98 1.92L12.98 1.92Q12.66 1.92 12.14 2.43Q11.63 2.93 11.27 3.94ZM26.27 12.96L26.27 12.96Q25.95 13.43 25.43 14.12Q24.91 14.81 24.36 15.50Q23.81 16.20 23.29 16.77Q22.76 17.34 22.41 17.58L22.41 17.58Q22.17 17.72 21.87 17.81Q21.56 17.91 21.25 17.93Q20.93 17.95 20.65 17.89Q20.37 17.84 20.16 17.70L20.16 17.70Q19.95 17.53 19.80 17.23L19.80 17.23Q19.69 16.97 19.58 16.55Q19.48 16.13 19.50 15.49L19.50 15.49Q18.94 16.43 18.26 16.93Q17.58 17.44 16.97 17.67L16.97 17.67Q16.27 17.93 15.56 17.98L15.56 17.98Q15.23 17.98 14.86 17.75Q14.48 17.53 14.23 17.05Q13.97 16.57 13.90 15.81Q13.83 15.05 14.09 13.99L14.09 13.99Q14.41 12.56 15.13 11.39Q15.84 10.22 16.69 9.39Q17.53 8.55 18.35 8.13Q19.17 7.71 19.71 7.76L19.71 7.76Q20.34 7.88 20.74 8.13L20.74 8.13Q21.07 8.37 21.18 8.82Q21.28 9.28 20.79 10.03L20.79 10.03Q21.12 9.96 21.34 9.94Q21.56 9.91 21.68 9.91L21.68 9.91Q21.82 9.91 21.87 9.94L21.87 9.94Q21.89 9.98 21.89 10.14Q21.89 10.29 21.82 10.69Q21.75 11.09 21.61 11.77Q21.47 12.45 21.23 13.52L21.23 13.52Q21.19 13.73 21.15 13.91Q21.12 14.09 21.08 14.26Q21.05 14.44 21 14.67Q20.95 14.91 20.88 15.26L20.88 15.26Q20.86 15.47 20.87 15.71Q20.88 15.96 20.95 16.17Q21.02 16.38 21.18 16.51Q21.33 16.64 21.61 16.64L21.61 16.64Q21.84 16.64 22.22 16.35Q22.59 16.05 23.02 15.60Q23.44 15.14 23.89 14.59Q24.35 14.04 24.75 13.52Q25.15 13.01 25.46 12.61Q25.78 12.21 25.92 12.02L25.92 12.02Q26.11 11.81 26.30 11.78Q26.48 11.74 26.58 11.88Q26.67 12.02 26.61 12.30Q26.55 12.59 26.27 12.96ZM19.41 13.99L19.41 13.99Q19.52 13.52 19.69 12.89Q19.85 12.26 19.97 11.67Q20.09 11.09 20.14 10.70Q20.20 10.31 20.11 10.34L20.11 10.34Q19.99 10.36 19.85 10.41L19.85 10.41Q19.73 10.45 19.55 10.48Q19.36 10.50 19.17 10.55L19.17 10.55Q19.36 10.17 19.39 9.93Q19.43 9.68 19.41 9.54L19.41 9.54Q19.38 9.38 19.31 9.28L19.31 9.28Q19.05 9.07 18.41 9.62Q17.77 10.17 16.92 11.65L16.92 11.65Q16.57 12.26 16.36 12.95Q16.15 13.64 16.07 14.25Q15.98 14.86 16.03 15.32Q16.08 15.77 16.22 15.91L16.22 15.91Q16.48 16.17 16.80 16.16Q17.13 16.15 17.47 15.97Q17.81 15.80 18.15 15.52Q18.49 15.23 18.76 14.93Q19.03 14.63 19.21 14.37Q19.38 14.11 19.41 13.99ZM35.30 9.66L35.30 9.66Q34.10 9.66 33.36 9.40Q32.63 9.14 32.37 8.74L32.37 8.74Q32.25 8.58 32.16 8.25Q32.06 7.92 32.23 7.52L32.23 7.52Q32.55 7.78 32.94 7.91Q33.33 8.04 33.66 8.09L33.66 8.09Q34.05 8.16 34.43 8.16L34.43 8.16Q35.13 8.16 35.80 8.04Q36.47 7.92 37.13 7.71L37.13 7.71Q37.41 6.30 37.68 5.18Q37.95 4.05 38.30 3.35L38.30 3.35Q38.67 2.58 39.08 1.96Q39.49 1.34 40.00 0.90Q40.50 0.47 41.11 0.23Q41.72 0 42.52 0L42.52 0Q43.10 0 43.44 0.23Q43.78 0.47 43.96 0.82Q44.13 1.17 44.17 1.58Q44.20 1.99 44.20 2.34L44.20 2.34Q44.20 3.12 43.83 4.03Q43.45 4.95 42.77 5.84Q42.09 6.73 41.14 7.52Q40.20 8.32 39.02 8.84L39.02 8.84Q38.63 10.38 38.24 11.89Q37.85 13.41 37.48 14.39L37.48 14.39Q37.15 15.30 36.64 16.43Q36.14 17.55 35.41 18.59L35.41 18.59Q35.86 18.87 36.32 19.17Q36.77 19.48 37.24 19.72Q37.71 19.97 38.19 20.13Q38.67 20.30 39.21 20.30L39.21 20.30Q39.77 20.27 40.31 20.13L40.31 20.13Q40.78 20.02 41.30 19.75Q41.81 19.48 42.26 18.98L42.26 18.98Q42.42 19.27 42.36 19.83Q42.30 20.39 42 20.95Q41.70 21.52 41.13 21.94Q40.57 22.36 39.73 22.36L39.73 22.36Q38.84 22.36 38.06 22.11Q37.29 21.87 36.61 21.52Q35.93 21.16 35.33 20.75Q34.73 20.34 34.22 19.99L34.22 19.99Q33.52 20.67 32.67 21.09Q31.83 21.52 30.80 21.52L30.80 21.52Q29.98 21.52 29.48 21.06Q28.99 20.60 29.04 19.83L29.04 19.83Q29.06 19.55 29.20 19.16Q29.34 18.77 29.73 18.42Q30.12 18.07 30.80 17.82Q31.48 17.58 32.55 17.58L32.55 17.58Q32.95 17.58 33.32 17.66Q33.68 17.74 34.03 17.86L34.03 17.86Q34.29 17.39 34.55 16.78Q34.80 16.17 35.11 15.40L35.11 15.40Q35.65 13.92 36.05 12.43Q36.45 10.95 36.73 9.54L36.73 9.54Q36.40 9.61 36.04 9.63Q35.67 9.66 35.30 9.66ZM31.41 20.25L31.41 20.25Q31.71 20.13 32.11 20.02Q32.51 19.90 33.02 19.36L33.02 19.36Q32.67 19.24 32.48 19.24L32.48 19.24Q31.64 19.24 31.25 19.49Q30.87 19.73 30.87 19.97L30.87 19.97Q30.87 20.13 31.01 20.21Q31.15 20.30 31.41 20.25ZM40.27 3.94L40.27 3.94Q40.15 4.29 39.96 4.97Q39.77 5.65 39.56 6.54L39.56 6.54Q40.83 5.72 41.59 4.66Q42.35 3.61 42.35 2.55L42.35 2.55Q42.35 1.92 41.98 1.92L41.98 1.92Q41.65 1.92 41.13 2.43Q40.62 2.93 40.27 3.94ZM48.40 3.82L48.40 3.82Q48.33 4.08 48.13 4.32Q47.93 4.57 47.68 4.72Q47.44 4.88 47.18 4.92Q46.92 4.97 46.76 4.83L46.76 4.83Q46.27 4.45 46.24 4.02Q46.22 3.59 46.45 3.20Q46.69 2.81 47.04 2.54Q47.39 2.27 47.65 2.23L47.65 2.23Q47.91 2.18 48.08 2.33Q48.26 2.48 48.35 2.73Q48.45 2.98 48.46 3.28Q48.47 3.59 48.40 3.82ZM45.16 8.81L45.16 8.81Q45.28 8.67 45.61 8.58Q45.94 8.48 46.29 8.43Q46.64 8.37 46.93 8.36Q47.23 8.34 47.27 8.37L47.27 8.37Q47.30 8.39 47.16 8.86Q47.02 9.33 46.80 9.96Q46.59 10.59 46.36 11.26Q46.13 11.93 46.01 12.35L46.01 12.35Q45.89 12.77 45.73 13.30Q45.56 13.83 45.43 14.33Q45.30 14.84 45.26 15.28Q45.21 15.73 45.33 15.96L45.33 15.96Q45.45 16.24 45.59 16.35Q45.73 16.45 45.89 16.45L45.89 16.45Q46.36 16.45 47.07 15.94Q47.79 15.42 48.53 14.71Q49.27 13.99 49.90 13.25Q50.53 12.52 50.84 12.07L50.84 12.07Q51.02 11.84 51.22 11.77Q51.42 11.70 51.55 11.79Q51.68 11.88 51.69 12.09Q51.70 12.30 51.54 12.59L51.54 12.59Q51.16 13.24 50.44 14.14Q49.71 15.05 48.89 15.88Q48.07 16.71 47.29 17.30Q46.50 17.88 46.01 17.91L46.01 17.91Q45.61 17.93 45.22 17.78Q44.84 17.63 44.52 17.36Q44.20 17.09 43.99 16.72Q43.78 16.36 43.76 15.96L43.76 15.96Q43.69 15.38 43.76 14.36Q43.83 13.34 44.02 12.27Q44.20 11.20 44.50 10.24Q44.79 9.28 45.16 8.81ZM55.20 4.20L55.20 4.20Q54.84 5.60 54.41 6.88Q53.98 8.16 53.52 9.27Q53.06 10.38 52.61 11.30Q52.15 12.21 51.80 12.89L51.80 12.89Q51.56 14.58 51.80 15.61Q52.03 16.64 52.71 16.64L52.71 16.64Q53.27 16.64 53.81 16.13Q54.35 15.61 54.77 14.86Q55.20 14.11 55.49 13.25Q55.78 12.40 55.85 11.72L55.85 11.72Q55.41 11.60 55.10 11.31Q54.80 11.02 54.80 10.52L54.80 10.52Q54.80 10.20 54.98 9.90Q55.17 9.61 55.43 9.40Q55.69 9.19 55.99 9.07Q56.30 8.95 56.55 8.95L56.55 8.95Q56.95 8.95 57.23 9.46Q57.52 9.96 57.61 10.73L57.61 10.73Q58.55 10.71 59.58 10.45Q60.61 10.20 61.52 9.80L61.52 9.80Q61.78 9.68 61.95 9.73Q62.11 9.77 62.17 9.91Q62.23 10.05 62.16 10.23Q62.09 10.41 61.88 10.50L61.88 10.50Q61.34 10.80 60.76 11.05Q60.19 11.30 59.63 11.46Q59.06 11.63 58.55 11.72Q58.03 11.81 57.61 11.81L57.61 11.81Q57.52 12.75 57.02 13.84Q56.53 14.93 55.83 15.86Q55.13 16.78 54.27 17.39Q53.41 18 52.59 18L52.59 18Q52.34 18 51.91 17.93Q51.49 17.86 51.09 17.44Q50.70 17.02 50.41 16.09Q50.13 15.16 50.18 13.45L50.18 13.45Q50.20 12.30 50.44 11.02Q50.67 9.73 51 8.44Q51.33 7.15 51.74 5.94Q52.15 4.73 52.52 3.76Q52.90 2.79 53.21 2.13Q53.53 1.48 53.70 1.29L53.70 1.29Q53.91 1.03 54.19 0.90Q54.47 0.77 54.74 0.71Q55.01 0.66 55.24 0.68Q55.48 0.70 55.57 0.75L55.57 0.75Q55.71 0.84 55.65 1.78Q55.59 2.72 55.20 4.20ZM58.90 17.51L58.90 17.51Q58.73 17.77 58.54 17.85Q58.34 17.93 58.18 17.87Q58.03 17.81 57.98 17.63Q57.94 17.44 58.08 17.16L58.08 17.16Q58.15 17.02 58.39 16.52Q58.64 16.03 58.98 15.34Q59.32 14.65 59.72 13.84Q60.12 13.03 60.48 12.30Q60.84 11.58 61.15 11.00Q61.45 10.43 61.59 10.17L61.59 10.17Q61.34 9.94 61.24 9.83Q61.15 9.73 61.10 9.38L61.10 9.38Q61.05 9.07 61.24 8.58Q61.43 8.09 61.73 7.63Q62.04 7.17 62.41 6.84Q62.79 6.52 63.14 6.52L63.14 6.52Q63.80 6.52 64.07 6.94Q64.34 7.36 64.38 7.80L64.38 7.80Q64.43 8.11 64.34 8.58Q64.24 9.05 63.98 9.42L63.98 9.42Q64.05 9.47 64.17 9.53Q64.29 9.59 64.55 9.59L64.55 9.59Q64.92 9.59 65.07 9.54Q65.23 9.49 65.55 9.49L65.55 9.49Q65.95 9.49 66.21 9.69Q66.47 9.89 66.63 10.18Q66.80 10.48 66.88 10.82Q66.96 11.16 66.98 11.44L66.98 11.44Q67.05 12.02 66.68 12.66Q66.30 13.29 65.77 14.04L65.77 14.04Q65.44 14.51 65.11 15.09Q64.78 15.68 64.83 16.15L64.83 16.15Q64.88 16.45 64.99 16.64Q65.11 16.83 65.65 16.83L65.65 16.83Q66.05 16.83 66.53 16.54Q67.01 16.24 67.51 15.79Q68.02 15.33 68.51 14.78Q69 14.23 69.42 13.70Q69.84 13.17 70.14 12.75Q70.43 12.33 70.57 12.14L70.57 12.14Q70.69 11.95 70.88 11.88Q71.06 11.81 71.20 11.88Q71.34 11.95 71.38 12.16Q71.41 12.38 71.20 12.73L71.20 12.73Q71.06 12.96 70.72 13.48Q70.38 13.99 69.90 14.63Q69.42 15.26 68.84 15.93Q68.25 16.59 67.61 17.14Q66.96 17.70 66.32 18.05Q65.67 18.40 65.09 18.40L65.09 18.40Q64.48 18.40 64.08 18.16Q63.68 17.93 63.43 17.59Q63.19 17.25 63.08 16.84Q62.98 16.43 63 16.08L63 16.08Q63.02 15.80 63.15 15.48Q63.28 15.16 63.46 14.82Q63.63 14.48 63.83 14.14Q64.03 13.80 64.20 13.48L64.20 13.48Q64.59 12.80 64.84 12.32Q65.09 11.84 65.09 11.51L65.09 11.51Q65.09 11.30 64.99 11.13Q64.90 10.97 64.69 10.97L64.69 10.97Q64.55 10.97 64.49 10.98Q64.43 10.99 64.37 10.99Q64.31 10.99 64.21 11.00Q64.10 11.02 63.89 11.02L63.89 11.02Q63.59 11.02 63.38 10.92Q63.16 10.83 62.98 10.78L62.98 10.78Q62.88 10.95 62.55 11.48Q62.23 12.02 61.79 12.75Q61.36 13.48 60.88 14.27Q60.40 15.07 59.98 15.76Q59.55 16.45 59.26 16.93Q58.97 17.41 58.90 17.51ZM80.16 12.75L80.16 12.75Q79.45 13.78 78.56 14.75Q77.67 15.73 76.68 16.49Q75.68 17.25 74.64 17.72Q73.59 18.19 72.61 18.19L72.61 18.19Q72.09 18.19 71.50 17.94Q70.90 17.70 70.41 17.18Q69.91 16.66 69.62 15.84Q69.33 15.02 69.45 13.85L69.45 13.85Q69.54 12.89 70.04 11.82Q70.55 10.76 71.29 9.87Q72.02 8.98 72.95 8.39Q73.88 7.80 74.81 7.80L74.81 7.80Q75.70 7.80 76.10 8.25Q76.50 8.70 76.45 9.35L76.45 9.35Q76.38 10.08 76.04 10.69Q75.70 11.30 75.23 11.79Q74.77 12.28 74.24 12.68Q73.71 13.08 73.24 13.41L73.24 13.41Q72.73 13.76 72.26 14.07Q71.79 14.39 71.44 14.65L71.44 14.65Q71.46 15.23 71.65 15.63Q71.84 16.03 72.12 16.28Q72.40 16.52 72.76 16.63Q73.13 16.73 73.50 16.73L73.50 16.73Q74.30 16.73 75.16 16.23Q76.03 15.73 76.86 15.01Q77.70 14.30 78.41 13.52Q79.13 12.75 79.59 12.19L79.59 12.19Q79.76 12 79.93 11.96Q80.11 11.93 80.21 12.01Q80.32 12.09 80.32 12.29Q80.32 12.49 80.16 12.75ZM74.16 9.14L74.16 9.14Q73.88 9.14 73.49 9.42Q73.10 9.70 72.73 10.23Q72.35 10.76 72.02 11.52Q71.70 12.28 71.53 13.27L71.53 13.27Q71.81 13.05 72.14 12.83Q72.47 12.61 72.80 12.35L72.80 12.35Q73.80 11.58 74.20 10.99Q74.60 10.41 74.65 9.98L74.65 9.98Q74.70 9.54 74.55 9.34Q74.41 9.14 74.16 9.14ZM77.58 17.51L77.58 17.51Q77.41 17.77 77.21 17.85Q77.02 17.93 76.86 17.87Q76.71 17.81 76.66 17.63Q76.62 17.44 76.76 17.16L76.76 17.16Q76.83 17.02 77.07 16.52Q77.32 16.03 77.66 15.34Q78 14.65 78.40 13.84Q78.80 13.03 79.16 12.30Q79.52 11.58 79.83 11.00Q80.13 10.43 80.27 10.17L80.27 10.17Q80.02 9.94 79.92 9.83Q79.83 9.73 79.78 9.38L79.78 9.38Q79.73 9.07 79.92 8.58Q80.11 8.09 80.41 7.63Q80.72 7.17 81.09 6.84Q81.47 6.52 81.82 6.52L81.82 6.52Q82.48 6.52 82.75 6.94Q83.02 7.36 83.06 7.80L83.06 7.80Q83.11 8.11 83.02 8.58Q82.92 9.05 82.66 9.42L82.66 9.42Q82.73 9.47 82.85 9.53Q82.97 9.59 83.23 9.59L83.23 9.59Q83.60 9.59 83.75 9.54Q83.91 9.49 84.23 9.49L84.23 9.49Q84.63 9.49 84.89 9.69Q85.15 9.89 85.31 10.18Q85.48 10.48 85.56 10.82Q85.64 11.16 85.66 11.44L85.66 11.44Q85.73 12.02 85.36 12.66Q84.98 13.29 84.45 14.04L84.45 14.04Q84.12 14.51 83.79 15.09Q83.46 15.68 83.51 16.15L83.51 16.15Q83.55 16.45 83.67 16.64Q83.79 16.83 84.33 16.83L84.33 16.83Q84.73 16.83 85.21 16.54Q85.69 16.24 86.19 15.79Q86.70 15.33 87.19 14.78Q87.68 14.23 88.10 13.70Q88.52 13.17 88.82 12.75Q89.11 12.33 89.25 12.14L89.25 12.14Q89.37 11.95 89.55 11.88Q89.74 11.81 89.88 11.88Q90.02 11.95 90.06 12.16Q90.09 12.38 89.88 12.73L89.88 12.73Q89.74 12.96 89.40 13.48Q89.06 13.99 88.58 14.63Q88.10 15.26 87.52 15.93Q86.93 16.59 86.29 17.14Q85.64 17.70 85.00 18.05Q84.35 18.40 83.77 18.40L83.77 18.40Q83.16 18.40 82.76 18.16Q82.36 17.93 82.11 17.59Q81.87 17.25 81.76 16.84Q81.66 16.43 81.68 16.08L81.68 16.08Q81.70 15.80 81.83 15.48Q81.96 15.16 82.14 14.82Q82.31 14.48 82.51 14.14Q82.71 13.80 82.88 13.48L82.88 13.48Q83.27 12.80 83.52 12.32Q83.77 11.84 83.77 11.51L83.77 11.51Q83.77 11.30 83.67 11.13Q83.58 10.97 83.37 10.97L83.37 10.97Q83.23 10.97 83.17 10.98Q83.11 10.99 83.05 10.99Q82.99 10.99 82.89 11.00Q82.78 11.02 82.57 11.02L82.57 11.02Q82.27 11.02 82.05 10.92Q81.84 10.83 81.66 10.78L81.66 10.78Q81.56 10.95 81.23 11.48Q80.91 12.02 80.47 12.75Q80.04 13.48 79.56 14.27Q79.08 15.07 78.66 15.76Q78.23 16.45 77.94 16.93Q77.65 17.41 77.58 17.51ZM93.38 3.82L93.38 3.82Q93.30 4.08 93.11 4.32Q92.91 4.57 92.66 4.72Q92.41 4.88 92.16 4.92Q91.90 4.97 91.73 4.83L91.73 4.83Q91.24 4.45 91.22 4.02Q91.20 3.59 91.43 3.20Q91.66 2.81 92.02 2.54Q92.37 2.27 92.63 2.23L92.63 2.23Q92.88 2.18 93.06 2.33Q93.23 2.48 93.33 2.73Q93.42 2.98 93.43 3.28Q93.45 3.59 93.38 3.82ZM90.14 8.81L90.14 8.81Q90.26 8.67 90.59 8.58Q90.91 8.48 91.27 8.43Q91.62 8.37 91.91 8.36Q92.20 8.34 92.25 8.37L92.25 8.37Q92.27 8.39 92.13 8.86Q91.99 9.33 91.78 9.96Q91.57 10.59 91.34 11.26Q91.10 11.93 90.98 12.35L90.98 12.35Q90.87 12.77 90.70 13.30Q90.54 13.83 90.41 14.33Q90.28 14.84 90.23 15.28Q90.19 15.73 90.30 15.96L90.30 15.96Q90.42 16.24 90.56 16.35Q90.70 16.45 90.87 16.45L90.87 16.45Q91.34 16.45 92.05 15.94Q92.77 15.42 93.50 14.71Q94.24 13.99 94.88 13.25Q95.51 12.52 95.81 12.07L95.81 12.07Q96 11.84 96.20 11.77Q96.40 11.70 96.53 11.79Q96.66 11.88 96.67 12.09Q96.68 12.30 96.52 12.59L96.52 12.59Q96.14 13.24 95.41 14.14Q94.69 15.05 93.87 15.88Q93.05 16.71 92.26 17.30Q91.48 17.88 90.98 17.91L90.98 17.91Q90.59 17.93 90.20 17.78Q89.81 17.63 89.50 17.36Q89.18 17.09 88.97 16.72Q88.76 16.36 88.73 15.96L88.73 15.96Q88.66 15.38 88.73 14.36Q88.80 13.34 88.99 12.27Q89.18 11.20 89.47 10.24Q89.77 9.28 90.14 8.81ZM106.83 12.96L106.83 12.96Q106.50 13.43 105.98 14.12Q105.47 14.81 104.92 15.50Q104.37 16.20 103.84 16.77Q103.31 17.34 102.96 17.58L102.96 17.58Q102.73 17.72 102.42 17.81Q102.12 17.91 101.80 17.93Q101.48 17.95 101.20 17.89Q100.92 17.84 100.71 17.70L100.71 17.70Q100.50 17.53 100.36 17.23L100.36 17.23Q100.24 16.97 100.14 16.55Q100.03 16.13 100.05 15.49L100.05 15.49Q99.49 16.43 98.81 16.93Q98.13 17.44 97.52 17.67L97.52 17.67Q96.82 17.93 96.12 17.98L96.12 17.98Q95.79 17.98 95.41 17.75Q95.04 17.53 94.78 17.05Q94.52 16.57 94.45 15.81Q94.38 15.05 94.64 13.99L94.64 13.99Q94.97 12.56 95.68 11.39Q96.40 10.22 97.24 9.39Q98.09 8.55 98.91 8.13Q99.73 7.71 100.27 7.76L100.27 7.76Q100.90 7.88 101.30 8.13L101.30 8.13Q101.63 8.37 101.73 8.82Q101.84 9.28 101.34 10.03L101.34 10.03Q101.67 9.96 101.89 9.94Q102.12 9.91 102.23 9.91L102.23 9.91Q102.38 9.91 102.42 9.94L102.42 9.94Q102.45 9.98 102.45 10.14Q102.45 10.29 102.38 10.69Q102.30 11.09 102.16 11.77Q102.02 12.45 101.79 13.52L101.79 13.52Q101.74 13.73 101.71 13.91Q101.67 14.09 101.64 14.26Q101.60 14.44 101.55 14.67Q101.51 14.91 101.44 15.26L101.44 15.26Q101.41 15.47 101.43 15.71Q101.44 15.96 101.51 16.17Q101.58 16.38 101.73 16.51Q101.88 16.64 102.16 16.64L102.16 16.64Q102.40 16.64 102.77 16.35Q103.15 16.05 103.57 15.60Q103.99 15.14 104.45 14.59Q104.91 14.04 105.30 13.52Q105.70 13.01 106.02 12.61Q106.34 12.21 106.48 12.02L106.48 12.02Q106.66 11.81 106.85 11.78Q107.04 11.74 107.13 11.88Q107.23 12.02 107.17 12.30Q107.11 12.59 106.83 12.96ZM99.96 13.99L99.96 13.99Q100.08 13.52 100.24 12.89Q100.41 12.26 100.52 11.67Q100.64 11.09 100.70 10.70Q100.76 10.31 100.66 10.34L100.66 10.34Q100.55 10.36 100.41 10.41L100.41 10.41Q100.29 10.45 100.10 10.48Q99.91 10.50 99.73 10.55L99.73 10.55Q99.91 10.17 99.95 9.93Q99.98 9.68 99.96 9.54L99.96 9.54Q99.94 9.38 99.87 9.28L99.87 9.28Q99.61 9.07 98.96 9.62Q98.32 10.17 97.48 11.65L97.48 11.65Q97.13 12.26 96.91 12.95Q96.70 13.64 96.62 14.25Q96.54 14.86 96.59 15.32Q96.63 15.77 96.77 15.91L96.77 15.91Q97.03 16.17 97.36 16.16Q97.69 16.15 98.03 15.97Q98.37 15.80 98.71 15.52Q99.05 15.23 99.32 14.93Q99.59 14.63 99.76 14.37Q99.94 14.11 99.96 13.99Z" transform="translate(0, 6.821)"></path></svg>